Simulation
nRows=46
nColumns=15
endheader
time  TH_x TH_y TH_z SC_y  SC_z  SC_x  AC_y  AC_z  AC_x  GH_y  GH_z  GH_yy  EL_x  PS_y
2.6910411985018725  0.000000  0.000000  0.000000  -23.682720656013252  4.60148176970808  -3.2736605889794013  56.74957138540006  9.333141616877189  5.6099836143724255  -12.57139107058569  2.7767193551335114  41.75074601779566  15.891370204484744  120.000000
2.7312059925093632  0.000000  0.000000  0.000000  -23.577663250077936  4.624705203465049  -3.148283403845697  57.305838045210876  9.692389557752449  5.975141144534467  -19.257647420174944  0.8655686563439987  50.77952008694031  16.64046454426611  120.000000
2.771370786516854  0.000000  0.000000  0.000000  -23.6171005134949  4.693736153174504  -2.975619381316429  57.77477538378118  10.016332960122496  6.28398190379372  179.98972407279228  0.9538870088805587  -146.32573045820965  17.305961642762824  120.000000
2.8115355805243447  0.000000  0.000000  0.000000  -23.762457736087814  4.797851973446979  -2.7833064700865866  58.15306495973431  10.293733012586856  6.532807540334801  175.13893001191371  2.6254571004236125  -139.5285037494744  17.861237824765336  120.000000
2.851700374531835  0.000000  0.000000  0.000000  -23.978010507384077  4.927237792633916  -2.5873012365370176  58.44300680006299  10.522271847624527  6.722090530243058  175.10052690535565  4.186326442955096  -137.72842728099562  18.28969319305415  120.000000
2.8918651685393257  0.000000  0.000000  0.000000  -24.234314502219895  5.072632757564645  -2.3931513673548936  58.65208806727736  10.70739550753667  6.8573078182789  175.9572025611945  5.626221326884743  -136.99709096183437  18.58680750601277  120.000000
2.9320299625468165  0.000000  0.000000  0.000000  -24.507896633755724  5.225199071938969  -2.200033913430415  58.79066749378141  10.858096328881773  6.948508207416893  177.14319914995244  6.938560338084693  -136.75976402074807  18.758978048312507  120.000000
2.972194756554307  0.000000  0.000000  0.000000  -24.780513421656675  5.376839765211425  -2.0048864734974496  58.8690755989178  10.982961288366896  7.006598353512231  178.4631350928668  8.118855331031904  -136.81362873575142  18.820791523650925  120.000000
3.012359550561798  0.000000  0.000000  0.000000  -25.039341673112702  5.522772155184101  -1.8061366019164258  58.89751119404507  11.087933577599955  7.039237775006749  179.83328583083562  9.165742144009819  -137.06815432635128  18.792446646297385  120.000000
3.0525243445692882  0.000000  0.000000  0.000000  -25.276739364237386  5.6620358767624985  -1.6055226714054258  58.885996830251635  11.175657503251854  7.050279544844252  -178.7952138159881  10.08143905134635  -137.46746343536282  18.697323310589635  120.000000
3.092689138576779  0.000000  0.000000  0.000000  -25.487925122534225  5.794088905135447  -1.4069968412038572  58.84304182851637  11.246455452608243  7.042003707341232  -177.4559027238815  10.87051447835709  -137.97035109931966  18.559317746249622  120.000000
3.1328539325842697  0.000000  0.000000  0.000000  -25.670565653630703  5.918122085816684  -1.2149777668185044  58.775416881719245  11.299294080477228  7.01686336718141  -176.17666224605475  11.538561402115066  -138.54084068720272  18.400018307256076  120.000000
3.1730187265917604  0.000000  0.000000  0.000000  -25.82399156968424  6.0331743805780755  -1.0338418799319606  58.688617169619064  11.332438604446832  6.977604097683571  -174.98301115254347  12.091255887283953  -139.14507651026352  18.23656882543128  120.000000
3.2131835205992507  0.000000  0.000000  0.000000  -25.94828629387505  6.137863620820609  -0.867714419804735  58.58744646207649  11.343833025010898  6.927219722707615  -173.8977699739324  12.533946131630826  -139.75180201671898  18.080326483761418  120.000000
3.2533483146067415  0.000000  0.000000  0.000000  -26.043971923901587  6.230939484862119  -0.7203027180375022  58.476349321173906  11.331517400844916  6.868813228928316  -172.94158410925075  12.871174309499088  -140.3321683080641  17.93698997681411  120.000000
3.293513108614232  0.000000  0.000000  0.000000  -26.111556455793675  6.311666198091857  -0.5946865302505958  58.35970585468684  11.294149290480226  6.805017368144331  -172.13174107979282  13.106263246570457  -140.86106364578566  17.807655837755465  120.000000
3.333677902621723  0.000000  0.000000  0.000000  -26.15159942483751  6.379882129948552  -0.49316188887840046  58.24153904166238  11.230807586197539  6.737826337658008  -171.48098366084957  13.241443771572648  -141.31844097605708  17.690462487465197  120.000000
3.3738426966292137  0.000000  0.000000  0.000000  -26.164915315920624  6.435524402667466  -0.417445196021732  58.12508675636504  11.140820349215943  6.668968339800423  -170.99657118554055  13.278271329386355  -141.69021018128257  17.582442314007135  120.000000
3.414007490636704  0.000000  0.000000  0.000000  -26.152601741018287  6.478429720860126  -0.36872348636401886  58.0127451630856  11.02365276686364  6.600027970693257  -170.68149903385807  13.217842827123341  -141.96711890875878  17.4809316099436  120.000000
3.4541722846441947  0.000000  0.000000  0.000000  -26.116109773627525  6.508434013580857  -0.3477396584145142  57.90613443252948  10.879137399604765  6.532424769642783  -170.53502140637218  13.060774254294529  -142.14431742661148  17.3843460852224  120.000000
3.4943370786516854  0.000000  0.000000  0.000000  -26.05701600256031  6.525466489354249  -0.354720293036071  57.80618516484148  10.707615106480079  6.467256224766265  -170.5526703003956  12.807185810016259  -142.22134175909076  17.29210317432988  120.000000
3.534501872659176  0.000000  0.000000  0.000000  -25.97695626903928  6.529631763684789  -0.3893386871407052  57.71332018560452  10.510074677654622  6.405349890398612  -170.72748413192974  12.456628014330805  -142.20102202639222  17.204033406029165  120.000000
3.574666666666667  0.000000  0.000000  0.000000  -25.877540845961214  6.521180111831741  -0.45083720606822825  57.627600876687346  10.288424444879237  6.347538870878362  -171.0512790244081  12.007905763029555  -142.08839796641684  17.119481022878862  120.000000
3.614831460674157  0.000000  0.000000  0.000000  -25.760114585291447  6.500425606277347  -0.5377920071623736  57.548777843270685  10.045404198713968  6.2947286622048555  -171.51450668510688  11.459074780443213  -141.89086228848316  17.036272454449282  120.000000
3.654996254681648  0.000000  0.000000  0.000000  -25.62597550843122  6.467820743156467  -0.6480438958753543  57.47627373536819  9.784378914696  6.247724119417727  -172.10604331408405  10.80762586703995  -141.61830474635914  16.949994744506377  120.000000
3.6951610486891386  0.000000  0.000000  0.000000  -25.476488732929024  6.424198641736708  -0.7791103218276731  57.409191216166164  9.509063427912206  6.207193290384741  -172.81264797847084  10.050867392406717  -141.28362395935426  16.853726959358834  120.000000
3.7353258426966294  0.000000  0.000000  0.000000  -25.31213262742489  6.3702463703992915  -0.9287375372415457  57.347262135147524  9.223274531369103  6.173343768154557  -173.62346811852788  9.18654535509305  -140.89788523638543  16.73892100843238  120.000000
3.7754906367041197  0.000000  0.000000  0.000000  -25.131940080185437  6.3055518256699  -1.0955751904254905  57.29117797237486  8.93008847162091  6.146996675384647  -174.53986125292127  8.213988941891412  -140.46051989364005  16.59664418458892  120.000000
3.8156554307116104  0.000000  0.000000  0.000000  -24.933985978363587  6.228518200923929  -1.279414580595163  57.24124921381095  8.631140181874992  6.130087839149206  -175.57465878090366  7.134766360464534  -139.95996836959827  16.41820288934356  120.000000
3.855820224719101  0.000000  0.000000  0.000000  -24.714699146266163  6.13762587219689  -1.4817582420992348  57.197519908755034  8.328247499157333  6.123143395624859  -176.74023563889287  5.951934800199192  -139.3856281499487  16.195728686110254  120.000000
3.895985018726592  0.000000  0.000000  0.000000  -24.46925904729715  6.033032756398604  -1.705563951983781  57.15819570959796  8.024433208763154  6.125293557863973  -178.0456055879126  4.670127799364752  -138.73028410975272  15.922472589407649  120.000000
3.9361498127340826  0.000000  0.000000  0.000000  -24.19231081824661  5.916040759637941  -1.9525296168274875  57.11919479574122  7.72359279021515  6.135310981862577  -179.53834271133212  3.2947376834451267  -137.94850436921215  15.59411924052086  120.000000
3.976314606741573  0.000000  0.000000  0.000000  -23.878892638126835  5.788781398996741  -2.221113347308237  57.07602494610192  7.432985395947208  6.15130719890735  178.3692885571734  1.829963607269076  -136.63315565810447  15.210787829778958  120.000000
4.016479400749064  0.000000  0.000000  0.000000  -23.529851376191207  5.655582139713408  -2.5048538185702345  57.02416786274324  7.165228778185056  6.171432836082449  163.88104317490547  0.28444908380570033  -122.9992201075173  14.778541258370147  120.000000
4.056644194756554  0.000000  0.000000  0.000000  -23.151469093276862  5.524045933348021  -2.7913956350918934  56.95990358722813  6.9390916617656755  6.193850602693697  2.699532013459541  1.3774596936646784  37.235087103219456  14.309880731340865  120.000000
4.096808988764045  0.000000  0.000000  0.000000  -22.75015889358823  5.405716422406058  -3.0631995511941175  56.88054879938849  6.779319441649654  6.216818601623783  0.4122686228513125  3.1254032332080843  38.46766564892658  13.822701524963978  120.000000
4.136973782771536  0.000000  0.000000  0.000000  -22.333887651602964  5.314276827388839  -3.2990571498674983  56.78247871958065  6.713544601869342  6.239354615835203  -0.4462879180164306  4.984511356022401  38.15323314222819  13.338108534043098  120.000000
4.177138576779027  0.000000  0.000000  0.000000  -21.912348410079147  5.262874456492541  -3.477619550315747  56.65995085917724  6.767288537056217  6.262413897794892  -0.9523572686713632  6.9620515226526365  37.36311638301881  12.878194339159633  120.000000
4.217303370786517  0.000000  0.000000  0.000000  -21.496039852727844  5.26287302055396  -3.581963415526257  56.50953030506008  6.959434611137322  6.286981902565544  -1.314772219888897  9.061026071165044  36.30808334726411  12.463671111877806  120.000000
4.257468164794007  0.000000  0.000000  0.000000  -21.098358743703134  5.322575613769603  -3.6014688781658326  56.33280118739116  7.299729053078324  6.3122295491289515  -1.5968850221863697  11.278801059133773  35.05899551215375  12.11073464808036  120.000000
4.297632958801498  0.000000  0.000000  0.000000  -20.735999105664987  5.445507964144944  -3.52979553078608  56.13065821146762  7.7866901665188335  6.3400604125852364  -1.8302345573507084  13.606277369605476  33.66005289413434  11.827963274205556  120.000000
4.337797752808989  0.000000  0.000000  0.000000  -20.428221907147122  5.62827165475047  -3.3618452139665878  55.90270275215526  8.407016815314396  6.374748852118419  -2.0292537384960943  16.02874497760224  32.14195053765781  11.614073673711928  120.000000
4.377962546816479  0.000000  0.000000  0.000000  -20.19404269247703  5.8621787308473925  -3.0946216604238175  55.65109140498233  9.139971359199997  6.420733011118498  -2.1946223491939802  18.5281425792251  30.523955210997713  11.458771739709455  120.000000
4.41812734082397  0.000000  0.000000  0.000000  -20.049447735255438  6.137209736979876  -2.7285282807674385  55.37984911493378  9.961212018965794  6.4842316752989  -2.3215800514302694  21.084831332678935  28.821712617226446  11.345674857562255  120.000000
4.458292134831461  0.000000  0.000000  0.000000  -20.00590095350456  6.442076396906478  -2.266103830348968  55.09428513113626  10.844101409259869  6.572048806066926  -2.404216882982955  23.67899507329202  27.050938973744916  11.255941166056035  120.000000
4.4984569288389515  0.000000  0.000000  0.000000  -20.06889047271232  6.763919194091146  -1.7123177385036528  54.80111670545346  11.76154287970553  6.690212945593964  -2.4378517196275045  26.29133925939001  25.229790410711974  11.17230846722949  120.000000
